<svg height="512" viewBox="0 0 512 512" width="512" xmlns="http://www.w3.org/2000/svg"><path d="m149.4 31.9c0-5.9 4.7-10.6 10.6-10.6h192c5.9 0 10.6 4.7 10.6 10.6v.2c0 5.9-4.7 10.6-10.6 10.6h-192c-5.9 0-10.6-4.7-10.6-10.6z"/><path d="m341.8 64.1c36.3 0 66.8 26.5 73.1 61.7q1.1 6.5 1.1 20 0 164.7 0 329.4 0 6.7-.8 9c-2.7 7.1-12.4 8.5-17.7 2.9q-58.7-62.5-117.3-125c-10.5-11.2-27-14.2-40.3-6.4q-4.6 2.6-12.7 11.3-56.2 60-112.3 119.9c-5.2 5.5-14.6 4.9-17.8-2.2q-1.1-2.3-1.1-7.6 0-165.8 0-331.6 0-13.5 1.2-19.9c5.4-30.7 29.8-55 60.4-60.4q6.6-1.2 19.9-1.2 82.1 0 164.3.1zm-116.6 275.5c21.3-15 51.3-12.7 69.5 6.7q49.8 53.1 99.5 106.2.1.1.2.1 0 0 .1 0 .1 0 .1-.1.1 0 .1-.1 0-156.5 0-313.2c0-29.9-23.8-53.9-53.7-53.9q-80.9 0-161.8 0-14 0-19.9 1.3c-24.9 5.3-42 27.6-42 53.1q0 156.5 0 312.6 0 .7.6.2 46.4-49.5 92.8-99.1 9.9-10.5 14.5-13.8z" fill-rule="evenodd"/><path d="m107 477 121-121s25.7-32.4 55-3 121 124 121 124l2-340s-8.9-60.2-63-60-177 0-177 0-60.5-2.1-60 64 1 336 1 336z" fill="#c39b7b"/></svg>