<svg width="191" height="266" viewBox="0 0 191 266" fill="none" xmlns="http://www.w3.org/2000/svg">
<g clip-path="url(#clip0_295_30)">
<path d="M187 7.77801C186.993 8.84085 186.978 9.90369 186.978 10.9665C186.978 40.4294 186.978 69.9006 186.978 99.38V102C178.995 102 171.055 102 163.022 102C163.014 68.1374 163.014 34.2501 163 0.140395C170.419 -0.0820596 173.045 -0.00790147 180.5 0.140402C186.978 0.269271 187 4.46453 187 7.77801Z" fill="#FEFEFD"/>
<path d="M187 258.298C186.993 257.246 186.978 256.193 186.978 255.141C186.978 225.967 186.978 196.785 186.978 167.594L186.978 165C178.995 165 171.055 165 163.022 165C163.014 198.531 163.014 232.086 163 265.861C170.419 266.081 173.045 266.008 180.5 265.861C186.978 265.733 187 261.579 187 258.298Z" fill="#FEFEFD"/>
<path d="M8.90918 245.102L10.7818 246.975V256.218H20.0256L21.8982 258.091H8.90918V245.102ZM34.0943 256.218H163.338V246.975L165.191 245.122V258.101H32.2217L34.0943 256.218Z" fill="#FEFEFD"/>
<path d="M10.7816 231.266V233.916L4.24727 240.45L10.7816 246.985V249.634L1.59766 240.45L10.7816 231.266ZM20.0154 256.218L26.5598 262.763L33.1041 256.218H35.7338L26.5498 265.402L17.3658 256.218H20.0154Z" fill="#FEFEFD"/>
<path d="M10.7816 236.436V244.445L6.77734 240.44L10.7816 236.436ZM30.5641 256.218L26.5598 260.223L22.5555 256.218H30.5641Z" fill="#F3EFDF"/>
<path d="M165.191 7.80937V20.7586L163.338 18.9059V9.66211H34.094L32.2413 7.80937H165.191ZM21.878 7.80937L20.0153 9.66211H10.7716V18.9059L8.89893 20.7785V7.80937H21.878Z" fill="#FEFEFD"/>
<path d="M35.7139 9.66211H33.0842L26.5598 3.1377L20.0354 9.66211H17.3857L26.5498 0.498047L35.7139 9.66211ZM10.7816 16.2662V18.9158L4.24727 25.4502L10.7816 31.9846V34.6342L1.59766 25.4502L10.7816 16.2662Z" fill="#FEFEFD"/>
<path d="M30.5641 9.6621H22.5555L26.5598 5.65781L30.5641 9.6621ZM10.7816 21.4359V29.4445L6.77734 25.4402L10.7816 21.4359Z" fill="#F3EFDF"/>
<path d="M9.07324 266.15C9.11827 266.098 9.22334 266 9.33591 266C9.95882 265.985 10.5892 266 11.2121 266C67.6141 266 124.016 266 180.418 266C180.966 266 181.521 266.008 182.144 266.045C182.219 266.083 182.219 266.15 182.219 266.15C124.529 266.15 66.831 266.15 9.07324 266.15Z" fill="#6C9294"/>
<path d="M41.5474 50.4664C41.5549 48.2134 41.5624 45.968 41.5699 43.715C41.5774 42.0403 41.5699 40.3656 41.5699 38.7059C42.1102 38.5557 56.1744 38.5107 57.1426 38.6609C57.1426 41.9877 57.1426 45.3372 57.1576 48.7917C57.2326 48.9119 57.2852 48.9269 57.3377 48.9344C57.4052 48.9419 57.4728 48.9494 57.6379 48.9569C57.803 48.9494 57.8705 48.9419 58.0131 48.9494C58.9963 48.9644 59.9119 48.9719 60.835 48.9644C62.5686 48.9569 64.3023 48.9419 66.0884 48.9419C66.2085 48.9494 66.276 48.9419 66.3436 48.9344H67.4693C67.4693 45.5024 67.4693 42.0929 67.4693 38.6308H72.6402V48.9194H83.0045C83.0045 45.5324 83.012 42.1379 83.057 38.6759C83.1021 38.6008 83.1621 38.5632 83.2296 38.5707C84.9107 38.5783 86.5243 38.5783 88.2204 38.5783V39.3893C88.2204 41.3119 88.2129 43.2344 88.2204 45.1494C88.2204 46.3735 88.2429 47.5976 88.2504 48.8593C88.303 48.9194 88.3555 48.9269 88.4756 48.9494C89.4512 48.9569 90.3518 48.9494 91.3049 48.9569C91.425 48.9569 91.4926 48.9494 91.6201 48.9494C91.7852 48.9494 91.8978 48.9419 92.0779 48.9494C94.2619 48.9569 96.3782 48.9569 98.5847 48.9569C98.5847 45.4723 98.5847 42.0628 98.5847 38.6684C99.6729 38.5182 103.185 38.5557 103.763 38.7285V48.9419C105.234 48.9419 106.652 48.9419 108.116 48.9569C108.236 48.9569 108.304 48.9494 108.379 48.9419H108.934C108.934 45.4874 108.934 42.0929 108.934 38.6383H114.075C114.112 39.4494 114.09 40.2905 114.097 41.1316V43.7601C114.097 44.6112 114.097 45.4623 114.097 46.3134V48.9119H119.283C119.283 45.4949 119.283 42.0854 119.283 38.6308H124.462V50.4439C124.477 50.6316 124.484 50.6992 124.477 50.8419C124.462 51.9759 124.462 53.0423 124.462 54.1913C124.139 54.1913 123.899 54.1913 123.659 54.1913C122.405 54.1913 121.159 54.1913 119.914 54.1913C118.87 54.1913 117.82 54.2063 116.724 54.1988C116.611 54.1913 116.544 54.1988 116.409 54.1913C114.428 54.1838 112.514 54.1838 110.6 54.1913C109.857 54.1913 109.114 54.2063 108.319 54.1988C108.206 54.1913 108.138 54.1988 108.003 54.1988C102.622 54.1763 97.3164 54.1763 92.0029 54.1763C91.8528 54.1763 91.7102 54.1988 91.5076 54.1988C91.395 54.1913 91.3274 54.1988 91.1924 54.1988C88.4681 54.1988 85.8113 54.2063 83.1096 54.2063C82.9895 54.1988 82.9219 54.2063 82.7869 54.1988C77.8786 54.1838 73.0455 54.1838 68.2048 54.1913C67.5894 54.1913 66.9665 54.2063 66.2911 54.1988C66.1785 54.1913 66.1109 54.1988 65.9759 54.1988C64.3923 54.1763 62.8763 54.1688 61.3603 54.1763C60.2196 54.1763 59.0788 54.1988 57.8856 54.1988C57.773 54.1913 57.7054 54.1988 57.5703 54.1988C55.6641 54.1838 53.8179 54.1838 51.9192 54.1838C51.9192 50.6767 51.9192 47.2597 51.9192 43.7601C50.178 43.7751 48.4969 43.7075 46.8008 43.7976C46.7858 44.083 46.7708 44.2858 46.7708 44.481C46.7708 49.0821 46.7708 53.6831 46.7708 58.2842C46.7708 58.4794 46.7933 58.6822 46.7933 58.9451C46.7633 59.4182 47.0635 59.3431 47.2961 59.3506C48.8346 59.3581 50.3731 59.3581 51.9192 59.3581V64.4423C51.3713 64.5925 43.1084 64.6526 41.5774 64.5099C41.5549 63.6688 41.5699 62.8051 41.5699 61.9415C41.5624 61.0704 41.5699 60.1917 41.5699 59.1779C41.5774 57.1502 41.5849 55.2577 41.5849 53.3727C41.5774 52.404 41.5549 51.4352 41.5474 50.4664Z" fill="#FDFEFD"/>
<path d="M124.416 59.3506C124.416 61.0478 124.416 62.7476 124.416 64.4498C123.891 64.5925 73.8859 64.6451 72.6626 64.4949C72.6626 62.8427 72.6626 61.1755 72.7376 59.4332C73.0303 59.3581 73.2555 59.3506 73.4806 59.3506C90.4617 59.3506 107.44 59.3506 124.416 59.3506Z" fill="#FCFDFC"/>
<path d="M115.869 33.3889C115.171 33.3814 114.473 33.3814 113.632 33.3664C112.056 33.3814 110.623 33.4039 109.122 33.4039C108.964 33.3964 108.874 33.4039 108.746 33.3964C108.649 33.3964 108.581 33.419 108.491 33.449C108.469 33.449 108.446 33.4866 108.416 33.4866C108.349 33.5016 108.319 33.5241 108.251 33.5016C107.966 33.4265 107.718 33.3814 107.471 33.3814C102.662 33.3764 97.8543 33.3739 93.0461 33.3739C92.6934 33.3739 92.3482 33.3964 91.9354 33.3889C91.7478 33.3814 91.6202 33.3889 91.4701 33.3814C91.4026 33.3664 91.3575 33.3739 91.26 33.3889C91.0498 33.3814 90.9147 33.3889 90.7196 33.3814C89.8565 33.3589 89.0535 33.3514 88.2505 33.3439C88.2505 31.6717 88.2505 29.9995 88.2505 28.3273C88.8209 28.1545 121.857 28.0644 124.334 28.2296C124.484 28.7478 124.522 32.2399 124.379 33.3739C121.903 33.3739 119.411 33.3739 116.792 33.3664C116.394 33.3664 116.131 33.3814 115.869 33.3889Z" fill="#FFFFFE"/>
<path d="M57.1872 59.3956C60.5945 59.3206 63.9942 59.3281 67.4765 59.3281C67.544 61.0478 67.544 62.7601 67.544 64.5324C64.0767 64.5324 60.692 64.5324 57.2323 64.5324C57.1347 62.8352 57.2098 61.1455 57.1872 59.3956Z" fill="#E6DAC8"/>
<path d="M57.6453 33.3589C57.4126 33.3439 57.1875 33.3138 57.1875 32.9984C57.1875 31.4514 57.1875 29.9044 57.1875 28.3798C57.7804 28.2071 66.4561 28.1621 67.4992 28.3123C67.5893 29.9344 67.5293 31.5715 67.5293 33.2988C67.1465 33.3138 66.8088 33.3364 66.336 33.3514C63.349 33.3589 60.4972 33.3589 57.6453 33.3589Z" fill="#E6DAC8"/>
<path d="M46.6804 33.3664C44.9618 33.3664 43.3182 33.3664 41.6221 33.3664C41.6221 31.6466 41.6221 29.9794 41.6221 28.3198C42.1549 28.1771 50.8606 28.132 51.8888 28.2672V33.3664C50.1852 33.3664 48.4666 33.3664 46.6804 33.3664Z" fill="#FEFEFD"/>
<path d="M77.9011 28.868C77.8936 28.5075 77.8936 28.2372 78.3064 28.2372H82.8468C83.042 28.8229 83.072 32.4727 82.8994 33.2988C81.2708 33.2988 79.6422 33.2988 77.9011 33.2988C77.9011 31.8194 77.9011 30.3775 77.9011 28.868Z" fill="#E6DAC8"/>
<path d="M166.486 156.209V160.626C165.915 160.634 165.373 160.648 164.832 160.648C164.283 160.655 163.734 160.648 163.192 160.648C163.033 160.12 162.997 154.799 163.141 153.838H166.486V156.209Z" fill="#FBFCFB"/>
<path d="M163.062 118.472C163.062 114.308 163.062 110.223 163.062 106.081H166.443V129.909C165.898 129.909 165.354 129.909 164.81 129.909C164.261 129.909 163.712 129.909 163.062 129.909C163.062 126.092 163.062 122.318 163.062 118.472Z" fill="#FBFCFB"/>
<path d="M185.689 140.16C184.952 140.16 184.28 140.16 183.58 140.16C183.58 128.752 183.58 117.431 183.58 106.066H186.932V140.16C186.52 140.16 186.137 140.16 185.689 140.16Z" fill="#FBFCFB"/>
<path d="M180.147 135.822V153.802C177.872 153.802 175.646 153.802 173.443 153.802C173.27 154.373 173.241 156.332 173.385 157.178H183.528C183.528 156.065 183.528 154.966 183.528 153.831H186.931V160.612C181.282 160.612 175.632 160.612 169.939 160.612C169.939 157.236 169.939 153.845 169.939 150.39H176.687C176.687 148.112 176.687 145.907 176.687 143.652C175.95 143.507 175.213 143.608 174.476 143.587C173.732 143.572 172.988 143.587 172.236 143.587C171.492 143.587 170.755 143.587 169.961 143.587C169.961 142.43 169.961 141.338 169.961 140.16H176.687C176.687 137.868 176.687 135.663 176.687 133.372C174.469 133.299 172.244 133.386 169.968 133.321C169.968 132.193 169.968 131.102 169.968 129.923H176.68C176.68 127.617 176.68 125.39 176.68 123.106C174.447 123.106 172.236 123.106 170.004 123.106C169.838 122.52 169.932 121.971 169.917 121.429C169.903 120.879 169.917 120.323 169.917 119.665C170.69 119.665 171.427 119.658 172.164 119.658C172.911 119.658 173.657 119.658 174.404 119.658H176.68C176.68 118.537 176.68 117.46 176.68 116.31C174.462 116.231 172.236 116.318 169.968 116.26C169.968 115.125 169.968 114.033 169.968 112.855H176.687C176.687 111.698 176.687 110.628 176.687 109.464C174.447 109.464 172.222 109.464 169.954 109.464C169.954 108.286 169.954 107.194 169.954 106.059H180.147V135.822Z" fill="#FBFCFB"/>
<path d="M186.903 143.724C186.968 144.686 186.989 145.597 186.997 146.507C187.004 147.541 186.997 148.575 186.997 149.616V150.368C185.826 150.368 184.735 150.368 183.652 150.368C183.507 149.847 183.457 144.743 183.594 143.724C184.114 143.536 184.663 143.645 185.205 143.63C185.754 143.623 186.31 143.659 186.903 143.724Z" fill="#E6DAC8"/>
<path d="M163.012 147.823C163.012 146.413 163.012 145.069 163.012 143.681H166.422V150.332C165.894 150.52 165.345 150.397 164.803 150.418C164.254 150.44 163.705 150.426 163.055 150.426C163.041 149.963 163.026 149.544 163.019 149.124C163.012 148.712 163.012 148.3 163.012 147.823Z" fill="#E6DAC8"/>
<path d="M166.479 135.945C166.465 136.198 166.45 136.386 166.436 136.632C165.323 136.632 164.232 136.632 163.112 136.632C162.917 136.133 163.04 135.598 163.018 135.085C162.997 134.557 163.011 134.03 163.011 133.524C163.553 133.328 165.598 133.292 166.479 133.473V135.945Z" fill="#E6DAC8"/>
</g>
<defs>
<clipPath id="clip0_295_30">
<rect width="191" height="266" fill="white"/>
</clipPath>
</defs>
</svg>
