<svg enable-background="new 0 0 483 1080" viewBox="0 0 483 1080" xmlns="http://www.w3.org/2000/svg"><g fill="none" stroke="#e5e5cb" stroke-miterlimit="10" stroke-width="6"><path d="m464.4 917.9v126.1h-315.3v-189.2h126.2v-126.1h-126.2v-63.1h126.2v-126.1h-126.2v-63.1h126.2v-126.1h-126.2v-63h126.2v-63.1h-126.2v-63.1h126.2v-63h-126.2v-63.1h189.2v882.9h-126.1v63h189.2v-63z"/><path d="m401.4 35h63v630.6h-63z"/><path d="m23 35h63.1v441.4h-63.1z"/><path d="m23 917.9h63.1v126.1h-63.1z"/><path d="m86.1 539.5v63.1h-63.1v-63.1z"/><path d="m86.1 728.7v126.1h-63.1v-126.1z"/><path d="m464.4 728.7v126.1h-63v-126.1z"/></g></svg>