<svg width="729" height="729" viewBox="0 0 729 729" fill="none" xmlns="http://www.w3.org/2000/svg">
<rect width="729" height="729" rx="58" fill="#F7F1EC"/>
<circle cx="364.5" cy="364.5" r="341" stroke="#E6DAC8" stroke-width="17"/>
<circle cx="365" cy="365" r="320.5" stroke="#582F0E" stroke-width="9"/>
<path d="M624.273 380.897V413.289H169.998V380.897H624.273Z" fill="#582F0E"/>
<path d="M624.273 413.289H591.809V315.97H624.273V413.289Z" fill="#582F0E"/>
<path d="M559.417 315.97V413.289H526.954V315.97H559.417Z" fill="#582F0E"/>
<path d="M494.49 315.97V413.289H462.027V315.97H494.49Z" fill="#582F0E"/>
<path d="M397.171 315.97V413.289H364.707V315.97H397.171Z" fill="#582F0E"/>
<path d="M299.78 315.97V413.289H267.317V315.97H299.78Z" fill="#582F0E"/>
<path d="M202.461 315.97V413.289H169.998V315.97H202.461Z" fill="#582F0E"/>
<path d="M202.461 315.97V348.434H105.071V315.97H202.461Z" fill="#582F0E"/>
<path d="M137.534 315.97V478.216H105.071V315.97H137.534Z" fill="#582F0E"/>
<path d="M169.998 445.824V478.216H105.071V445.824H169.998Z" fill="#582F0E"/>
<path d="M624.273 445.824V478.216H299.78V445.824H624.273Z" fill="#582F0E"/>
<path d="M624.273 251.043V283.578H397.171V251.043H624.273Z" fill="#582F0E"/>
<path d="M169.998 251.043V283.578H105.071V251.043H169.998Z" fill="#582F0E"/>
<path d="M364.707 251.043V283.578H332.244V251.043H364.707Z" fill="#E6DAC8"/>
<path d="M267.317 251.043V283.578H202.461V251.043H267.317Z" fill="#E6DAC8"/>
<path d="M267.317 445.824V478.216H202.461V445.824H267.317Z" fill="#E6DAC8"/>
</svg>
