<svg width="24" height="24" viewBox="0 0 24 24" fill="none" xmlns="http://www.w3.org/2000/svg">
<g id="Interface essential/Share">
<path id="Icon" fill-rule="evenodd" clip-rule="evenodd" d="M15.6436 16.6259C16.2307 16.6275 16.8063 16.7865 17.3083 17.0859H17.2953C18.8085 17.9726 19.3224 19.8852 18.4518 21.3901C17.5811 22.895 15.6454 23.4399 14.0956 22.6163C12.5458 21.7927 11.9507 19.903 12.7564 18.3635L8.94578 14.5434C8.67062 14.7079 8.37278 14.8327 8.06141 14.9139C7.80213 14.9793 7.53575 15.0136 7.26808 15.0161C5.61805 15.0243 4.2234 13.817 4.02405 12.2079C3.8247 10.5988 4.88389 9.0981 6.48775 8.71728C6.74314 8.65609 7.00522 8.62605 7.26808 8.62784C7.93925 8.62836 8.59368 8.83373 9.14086 9.21556L12.7564 5.6637C12.2177 4.67496 12.2512 3.48016 12.8444 2.52202C13.4376 1.56389 14.5021 0.985161 15.6436 1.00029C16.2296 0.997383 16.8053 1.15202 17.3083 1.44747C18.3305 1.99978 18.9751 3.04588 18.9993 4.19171C19.0235 5.33754 18.4236 6.40902 17.4256 7.00254C16.4276 7.59605 15.1832 7.62143 14.1609 7.06911L10.3374 10.8254C10.3798 10.9161 10.4146 11.0101 10.4414 11.1065C10.6142 11.7942 10.5454 12.519 10.2463 13.1635L14.1479 16.9964C14.6099 16.7592 15.1223 16.6322 15.6436 16.6259ZM15.6436 2.91676C15.187 2.91415 14.7625 3.14691 14.5251 3.53003C14.3478 3.8221 14.2963 4.17157 14.382 4.50104C14.4571 4.83001 14.6695 5.11283 14.9673 5.28041C15.1667 5.40191 15.3959 5.46813 15.6306 5.47206C16.0897 5.47198 16.5148 5.23403 16.749 4.84601C17.1175 4.24249 16.9198 3.45988 16.3068 3.09563C16.1077 2.97488 15.8775 2.9128 15.6436 2.91676ZM7.26808 13.0996C6.65592 13.1171 6.11426 12.7127 5.96754 12.1286C5.88565 11.7974 5.94184 11.4479 6.1236 11.1576C6.301 10.8711 6.58593 10.6646 6.91693 10.5826H7.22906C7.84122 10.5651 8.38288 10.9695 8.5296 11.5537C8.61177 11.8791 8.56039 12.2233 8.38654 12.5119L8.30851 12.6013C8.13598 12.8438 7.88317 13.0199 7.59321 13.0996H7.26808ZM15.6306 21.0338C16.0871 21.0364 16.5116 20.8036 16.749 20.4205C17.0749 19.8315 16.8818 19.0952 16.3068 18.734C16.1074 18.6125 15.8782 18.5463 15.6436 18.5424C15.1844 18.5425 14.7593 18.7804 14.5251 19.1684C14.1566 19.772 14.3543 20.5546 14.9673 20.9188C15.1731 21.0174 15.4029 21.0572 15.6306 21.0338Z" fill="#292D32"/>
</g>
</svg>
